{"title":"Scary Movie 5 2013 BRRip 720p x264 AAC - PRiSTiNE [P2PDL]","uid":8757823,"size":611542840,"categoryP":"video","categoryS":"hd___movies","magnet":"?xt=urn:btih:45f14ea05dbb00933c73a71ad282d69c49887bbd&amp;dn=Scary+Movie+5+2013+BRRip+720p+x264+AAC+-+PRiSTiNE+%5BP2PDL%5D&amp;tr=udp%3A%2F%2Ftracker.openbittorrent.com%3A80&amp;tr=udp%3A%2F%2Fopen.demonii.com%3A1337&amp;tr=udp%3A%2F%2Ftracker.coppersurfer.tk%3A6969&amp;tr=udp%3A%2F%2Fexodus.desync.com%3A6969","seeders":1,"leechers":2,"uploader":"ValidusVyto","files":-1,"time":1375181667,"description":"_______ Visit us at our Semi Public Bittorrent Community ________\n  &lt;a href=&quot;\nhttp://p2pdl.com&quot; rel=&quot;nofollow&quot; target=&quot;_NEW&quot;&gt;\nhttp://p2pdl.com&lt;/a&gt;  _____________________________ &lt;a href=&quot; http://p2pdl.com&quot; rel=&quot;nofollow&quot; target=&quot;_NEW&quot;&gt; http://p2pdl.com&lt;/a&gt;\n\n\nScary Movie 5 2013 BRRip 720p x264 AAC - PRiSTiNE\n\n\nGenre: Comedy \nPlot: A couple begin to experience some unusual activity \nafter bringing their newborn son home from the hospital. \nWith the help of home-surveillance cameras and a team \nof experts, they learn they're being stalked by a nefarious demon.\nDirector: Malcolm D. Lee\nStars: Ashley Tisdale, Simon Rex, Charlie Sheen.\nRated: N/A\n\nInfo: &lt;a href=&quot;\nhttp://www.imdb.com/title/tt0795461/&quot; rel=&quot;nofollow&quot; target=&quot;_NEW&quot;&gt;\nhttp://www.imdb.com/title/tt0795461/&lt;/a&gt;\n\nGeneral\nFormat                         : MPEG-4\nFile size                      : 575 MiB\nDuration                       : 1h 28mn\nOverall bit rate mode          : Variable\nOverall bit rate               : 912 Kbps\n\nVideo\nFormat                         : AVC\nBit rate                       : 839 Kbps\nWidth                          : 1 280 pixels\nHeight                         : 720 pixels\nDisplay aspect ratio           : 16:9\nFrame rate mode                : Constant\nFrame rate                     : 23.976 fps\nBit depth                      : 10 bits\nStream size                    : 523 MiB (91%)\nWriting library                : x264 core 130 r2273 b3065e6\n\nAudio\nFormat                         : AAC\nBit rate                       : 79.8 Kbps\nChannel(s)                     : 2 channels\nChannel positions              : Front: L R\nSampling rate                  : 48.0 KHz / 24.0 KHz\nStream size                    : 50.3 MiB (9%)\n\nSubtitle                       : Yes(English)\n &lt;a href=&quot;\nhttp://someimage.com/aoEGqWT&quot; rel=&quot;nofollow&quot; target=&quot;_NEW&quot;&gt;\nhttp://someimage.com/aoEGqWT&lt;/a&gt; &lt;a href=&quot;\nhttp://someimage.com/R3nJfyZ&quot; rel=&quot;nofollow&quot; target=&quot;_NEW&quot;&gt;\nhttp://someimage.com/R3nJfyZ&lt;/a&gt; &lt;a href=&quot;\nhttp://someimage.com/Y6CJ8H7&quot; rel=&quot;nofollow&quot; target=&quot;_NEW&quot;&gt;\nhttp://someimage.com/Y6CJ8H7&lt;/a&gt; &lt;a href=&quot;\nhttp://someimage.com/60nfCpe&quot; rel=&quot;nofollow&quot; target=&quot;_NEW&quot;&gt;\nhttp://someimage.com/60nfCpe&lt;/a&gt; &lt;a href=&quot;\nhttp://someimage.com/5LV5ZqC&quot; rel=&quot;nofollow&quot; target=&quot;_NEW&quot;&gt;\nhttp://someimage.com/5LV5ZqC&lt;/a&gt; &lt;a href=&quot;\nhttp://someimage.com/gcmX6zw&quot; rel=&quot;nofollow&quot; target=&quot;_NEW&quot;&gt;\nhttp://someimage.com/gcmX6zw&lt;/a&gt; &lt;a href=&quot;\nhttp://someimage.com/cYm0UPz&quot; rel=&quot;nofollow&quot; target=&quot;_NEW&quot;&gt;\nhttp://someimage.com/cYm0UPz&lt;/a&gt;\n\n----------------------------------------------------------------------------------------------------\n\n\nEncoded using revolutionary 10bit encoding, which enables us to provide you more crispier \nand sharper images at small sizes, just make sure you follow our instructions without a fault.\nRecommend to you to use latest version of VLC player. Install K-Lite Codec Pack or shark007 codecs\nin case of any kind of problem in playback (For non-VLC Media Player users). Alternatively, install\nCore AVC codecs, the fastest decoder that there is coupled with Community Center Codec Pack and play\non Windows Media Player Classic. Check sample to be sure.\nEnjoy!\n\nEncoder Notes:Looking For Early Access To Anything You Can Provide DVDScr, R5, DVDR, BluRay, Direct\nAudio, Music Releases and Seedboxes. We require dedicated servers, so as to do more \nand fast releases of movies.\nIf You Got anything to offer please contact us at &quot;&lt;a class=&quot;__cf_email__&quot; href=&quot;/cdn-cgi/l/email-protection&quot; data-cfemail=&quot;55252732153d20263d7b363a38&quot;&gt;[email&amp;#160;protected]&lt;/a&gt;&lt;script cf-hash='f9e31' type=&quot;text/javascript&quot;&gt;\n/* &lt;![CDATA[ */!function(){try{var t=&quot;currentScript&quot;in document?document.currentScript:function(){for(var t=document.getElementsByTagName(&quot;script&quot;),e=t.length;e--;)if(t[e].getAttribute(&quot;cf-hash&quot;))return t[e]}();if(t&amp;&amp;t.previousSibling){var e,r,n,i,c=t.previousSibling,a=c.getAttribute(&quot;data-cfemail&quot;);if(a){for(e=&quot;&quot;,r=parseInt(a.substr(0,2),16),n=2;a.length-n;n+=2)i=parseInt(a.substr(n,2),16)^r,e+=String.fromCharCode(i);e=document.createTextNode(e),c.parentNode.replaceChild(e,c)}}}catch(u){}}();/* ]]&gt; */&lt;/script&gt;&quot;.\n\nFace book Fan Page:  \nSearch P2PDL on FB.","torrent":{"xt":"urn:btih:45f14ea05dbb00933c73a71ad282d69c49887bbd","amp;dn":"Scary+Movie+5+2013+BRRip+720p+x264+AAC+-+PRiSTiNE+%5BP2PDL%5D","amp;tr":["udp%3A%2F%2Ftracker.openbittorrent.com%3A80","udp%3A%2F%2Fopen.demonii.com%3A1337","udp%3A%2F%2Ftracker.coppersurfer.tk%3A6969","udp%3A%2F%2Fexodus.desync.com%3A6969"],"infoHash":"45f14ea05dbb00933c73a71ad282d69c49887bbd","infoHashBuffer":{"type":"Buffer","data":[69,241,78,160,93,187,0,147,60,115,167,26,210,130,214,156,73,136,123,189]},"announce":[],"urlList":[]}}